<svg xmlns:dc="http://purl.org/dc/elements/1.1/" xmlns:cc="http://creativecommons.org/ns#" xmlns:rdf="http://www.w3.org/1999/02/22-rdf-syntax-ns#" xmlns:svg="http://www.w3.org/2000/svg" xmlns="http://www.w3.org/2000/svg" xmlns:sodipodi="http://sodipodi.sourceforge.net/DTD/sodipodi-0.dtd" xmlns:inkscape="http://www.inkscape.org/namespaces/inkscape" version="1.1" x="0px" y="0px" viewBox="0 0 100 125"><g transform="translate(0,-952.36218)"><path style="font-size:medium;font-style:normal;font-variant:normal;font-weight:normal;font-stretch:normal;text-indent:0;text-align:start;text-decoration:none;line-height:normal;letter-spacing:normal;word-spacing:normal;text-transform:none;direction:ltr;block-progression:tb;writing-mode:lr-tb;text-anchor:start;baseline-shift:baseline;opacity:1;color:#000000;fill:#000000;fill-opacity:1;stroke:none;stroke-width:3.99999905000000000;marker:none;visibility:visible;display:inline;overflow:visible;enable-background:accumulate;font-family:Sans;-inkscape-font-specification:Sans" d="M 30 11 C 16.768856 11 6 21.76886 6 35 C 6 44.48347 11.676976 53.7638 18.9375 62.125 C 26.198024 70.4861 35.167534 77.95095 42.34375 83.59375 A 2.0001995 2.0001995 0 1 0 44.8125 80.46875 C 37.714647 74.88765 28.900224 67.5182 21.9375 59.5 C 14.974776 51.4818 10 42.8437 10 35 C 10 23.93062 18.930616 15 30 15 C 38.077929 15 45.023912 19.78887 48.1875 26.65625 A 2.0001995 2.0001995 0 1 0 51.8125 24.96875 C 48.01207 16.71895 39.657835 11 30 11 z M 70 11 C 64.212761 11 58.874914 13.03162 54.71875 16.46875 A 2.0001995 2.0001995 0 1 0 57.28125 19.53125 C 60.740196 16.67071 65.140035 15 70 15 C 81.069383 15 90 23.93062 90 35 C 90 44.15025 83.16399 54.3685 74.4375 63.4375 C 65.71101 72.5065 55.294558 80.39605 48.78125 85.40625 A 2.0063376 2.0063376 0 0 0 51.21875 88.59375 C 57.705442 83.60405 68.28899 75.59645 77.3125 66.21875 C 86.33601 56.84115 94 46.06317 94 35 C 94 21.76886 83.231145 11 70 11 z " transform="translate(0,952.36218)"/></g><text x="0" y="115" fill="#000000" font-size="5px" font-weight="bold" font-family="'Helvetica Neue', Helvetica, Arial-Unicode, Arial, Sans-serif">Created by hans draiman</text><text x="0" y="120" fill="#000000" font-size="5px" font-weight="bold" font-family="'Helvetica Neue', Helvetica, Arial-Unicode, Arial, Sans-serif">from the Noun Project</text></svg>